<?xml version="1.0" encoding="UTF-8" standalone="no"?>
<!-- Created with Inkscape (http://www.inkscape.org/) -->

<svg
   xmlns:dc="http://purl.org/dc/elements/1.1/"
   xmlns:cc="http://creativecommons.org/ns#"
   xmlns:rdf="http://www.w3.org/1999/02/22-rdf-syntax-ns#"
   xmlns:svg="http://www.w3.org/2000/svg"
   xmlns="http://www.w3.org/2000/svg"
   xmlns:sodipodi="http://sodipodi.sourceforge.net/DTD/sodipodi-0.dtd"
   xmlns:inkscape="http://www.inkscape.org/namespaces/inkscape"
   version="1.1"
   id="svg2"
   xml:space="preserve"
   width="151.25383"
   height="119.88665"
   viewBox="0 0 151.25383 119.88665"
   sodipodi:docname="micron.svg"
   inkscape:version="0.92.4 (5da689c313, 2019-01-14)"><metadata
     id="metadata8"><rdf:RDF><cc:Work
         rdf:about=""><dc:format>image/svg+xml</dc:format><dc:type
           rdf:resource="http://purl.org/dc/dcmitype/StillImage" /><dc:title></dc:title></cc:Work></rdf:RDF></metadata><defs
     id="defs6" /><sodipodi:namedview
     pagecolor="#ffffff"
     bordercolor="#666666"
     borderopacity="1"
     objecttolerance="10"
     gridtolerance="10"
     guidetolerance="10"
     inkscape:pageopacity="0"
     inkscape:pageshadow="2"
     inkscape:window-width="1604"
     inkscape:window-height="1111"
     id="namedview4"
     showgrid="false"
     fit-margin-top="0"
     fit-margin-left="0"
     fit-margin-right="0"
     fit-margin-bottom="0"
     inkscape:zoom="1.5463448"
     inkscape:cx="173.25126"
     inkscape:cy="104.40477"
     inkscape:window-x="1162"
     inkscape:window-y="147"
     inkscape:window-maximized="0"
     inkscape:current-layer="g10" /><g
     id="g10"
     inkscape:groupmode="layer"
     inkscape:label="ink_ext_XXXXXX"
     transform="matrix(1.3333333,0,0,-1.3333333,1.0846579e-4,119.88665)"><path
       inkscape:connector-curvature="0"
       id="path24"
       style="fill:#104076;fill-opacity:1;fill-rule:nonzero;stroke:none;stroke-width:0.1"
       d="m 111.783,85.8305 c -5.192,7.4355 -21.3221,4.4218 -42.2295,-6.6231 -0.9336,-0.4609 -1.7637,-0.9433 -2.375,-1.3652 -1.0113,-0.6992 -0.4195,-1.2129 0.3242,-0.9414 0.7641,0.2773 1.6352,0.6133 2.6172,1.0937 15.6739,7.4317 27.8969,8.7676 32.6761,3.5801 C 110.077,73.6723 95.1648,47.7777 69.343,28.6211 65.8953,26.0645 60.5754,22.3223 57.1105,20.2422 56.877,20.0996 56.6453,19.957 56.4188,19.8086 55.5051,19.209 54.6887,18.6523 54.0461,18.1523 c -0.6231,-0.4882 -0.5039,-1.2597 0.625,-0.7753 0.6836,0.2929 1.5191,0.7382 2.4082,1.2793 0.2,0.123 0.398,0.2343 0.6062,0.3652 3.8938,2.3633 9.675,6.3555 13.6243,9.1113 3.3965,2.3731 6.605,4.7793 9.6257,7.1992 L 80.9336,19.9883 h 14.0078 v 28.016 c 15.4256,15.9121 21.8136,30.7051 16.8416,37.8262" /><path
       inkscape:connector-curvature="0"
       id="path26"
       style="fill:#104076;fill-opacity:1;fill-rule:nonzero;stroke:none;stroke-width:0.1"
       d="m 26.1785,0 h 14.009 l -0.0012,14.5195 c 3.8305,2.2618 7.7063,4.7422 11.5157,7.3418 0.8593,0.5879 1.6171,1.1739 2.1664,1.6778 0.9058,0.8281 0.2527,1.2539 -0.4496,0.8847 C 52.7004,24.0469 51.8484,23.5332 50.9285,22.9453 29.2883,9.10742 14.6809,4.88281 9.28438,12.207 4.59844,18.5645 12.2805,30.8574 26.1785,44.7387 V 12.5156 c 3.9438,1.3399 8.6059,3.4766 14.007,6.4785 l -0.0031,29.895 3.0805,-6.5547 c 3.3777,-7.2426 9.5059,-11.5707 17.2976,-11.5707 7.7918,0 13.9192,4.3281 17.2969,11.5707 l 3.0813,6.5547 -0.0024,-7.627 c 5.0117,4.8594 9.2903,9.7149 12.5383,14.4102 0.4031,0.58 0.3684,1.0703 0.1477,1.6054 -2.1621,4.5059 -6.7602,7.6133 -12.102,7.6133 -5.2808,0 -9.8711,-3.0664 -12.0699,-7.498 L 63.5898,44.9594 c -0.6054,-1.2129 -1.7226,-1.8848 -3.0273,-1.8848 -1.3035,0 -2.427,0.6719 -3.032,1.8848 L 51.6688,57.393 c -1.1161,2.2519 -2.8512,4.1504 -4.9801,5.4726 4.2847,3.4043 8.4508,6.4434 12.5547,8.9317 0.9336,0.5664 1.6992,1.1347 2.3433,1.6289 0.6313,0.4824 0.5168,1.2539 -0.616,0.7793 -0.6855,-0.2871 -1.5754,-0.7266 -2.468,-1.2657 -4.189,-2.539 -8.4746,-5.1406 -12.5718,-7.9375 -0.4961,-0.3378 -0.9883,-0.6796 -1.4789,-1.0195 -1.5079,0.584 -3.1434,0.9082 -4.8536,0.9082 -7.4246,0 -13.4199,-5.998 -13.4199,-13.4219 V 49.6195 C 6.39063,31.9766 -3.99883,14.5039 1.43281,6.72461 5.4168,1.01953 14.8652,2.33789 26.1785,7.25195 V 0" /></g></svg>