<?xml version="1.0" encoding="utf-8"?>
<!-- Generator: Adobe Illustrator 19.0.0, SVG Export Plug-In . SVG Version: 6.00 Build 0)  -->
<svg version="1.1" id="layer" xmlns="http://www.w3.org/2000/svg" xmlns:xlink="http://www.w3.org/1999/xlink" x="0px" y="0px"
	 viewBox="-153 -46 652 652" style="enable-background:new -153 -46 652 652;" xml:space="preserve">
<style type="text/css">
	.st0{fill:#184479;}
</style>
<path id="XMLID_7_" class="st0" d="M-1,168.1h29.3l-15.5,75.5c0,0,10.2-8.6,20.3-11.9c10.2-3.3,16.6-2.8,16.6-2.8s14.8-0.2,22.3,9
	c7.5,9.2,6.6,21.1,6.2,24c-0.5,2.9-15.9,78.5-15.9,78.5H32.8L47.5,270c0,0,3.5-12.5-3.1-17.3c-6.7-4.8-16.7-2.5-23.9,3.6
	c-7.1,6.1-10.9,12.2-13,17.8c-2.1,5.6-15,66.4-15,66.4h-29.4L-1,168.1z M161.9,340.4h29.5c0,0,7.7-36.4,10.3-47.8
	c2.6-11.3,6.7-19.1,7.8-21.1c1.2-2,5.9-9.2,14.9-14c9-4.8,19.1-1.3,19.1-1.3l11.2-24c0,0-8.6-5.7-21.6-2.1
	c-13.1,3.6-25.2,22.1-25.2,22.1l4.4-20.8h-27.5L161.9,340.4z M427,239.5c19.5,20.3,10.2,58.4,2.3,73.3c-13,24.4-31.9,31.5-49.8,30
	c-10.1-0.8-21-6.7-27.8-17.1l-14,67.1h-29.4l33.6-161.3h27l-2.3,11.4c0,0,0.1,0.7,0.5,0.2C378,230,408.2,220.7,427,239.5
	 M408.6,287.7c5.4-24.7-7-40.6-24.9-35.8c-18.5,4.9-28,35.2-22.7,53c0,0,5.6,18,23.2,15C391.8,318.7,403.7,310.2,408.6,287.7"/>
<path id="XMLID_1_" class="st0" d="M455.4,234.6v-14h6.2c1.2,0,2.2,0.1,2.8,0.4c0.6,0.3,1.1,0.7,1.5,1.3c0.4,0.6,0.6,1.3,0.6,2.1
	c0,1-0.3,1.8-0.9,2.5c-0.7,0.7-1.6,1.1-3,1.3c0.5,0.2,0.8,0.5,1.1,0.7c0.5,0.5,1,1.1,1.5,1.9l2.4,3.8h-2.3l-1.9-2.9
	c-0.5-0.8-1-1.5-1.3-1.9c-0.4-0.5-0.7-0.8-0.9-0.9c-0.3-0.2-0.6-0.3-0.9-0.4c-0.2,0-0.5-0.1-1-0.1h-2.1v6.2H455.4z M457.2,226.8h4
	c0.8,0,1.5-0.1,2-0.3c0.4-0.2,0.8-0.5,1.1-0.8c0.3-0.4,0.4-0.8,0.4-1.3c0-0.7-0.2-1.2-0.7-1.6c-0.5-0.4-1.2-0.6-2.3-0.6h-4.4V226.8z
	 M472.2,227.4c0,6.5-5.3,11.8-11.8,11.8c-3.2,0-6.2-1.2-8.4-3.5c-2.2-2.2-3.5-5.2-3.5-8.4c0-3.2,1.2-6.1,3.5-8.4
	c2.2-2.2,5.2-3.5,8.4-3.5c3.2,0,6.1,1.2,8.4,3.5C471,221.3,472.2,224.2,472.2,227.4 M460.4,213.8c-3.7,0-7.1,1.4-9.6,4
	c-2.6,2.6-4,6-4,9.6c0,3.6,1.4,7.1,4,9.6c2.6,2.6,6,4,9.6,4c7.5,0,13.6-6.1,13.6-13.6c0-3.6-1.4-7.1-4-9.6
	C467.4,215.2,464,213.8,460.4,213.8 M175.6,295.1c0,0,1.6-12.7-0.6-28.3c-2.2-15.6-11.7-39.1-47.1-37.9c-36,1.3-48.8,31.3-48.8,31.3
	s-14.6,25.5-3.9,53.8c11.1,26.4,35.7,29.1,45.5,28.9c12.9,0.2,22.2-4.4,22.7-4.6c18.6-7.8,25.4-24.3,26.3-27.2
	c-0.1,0-25.8-4.3-25.8-4.3c-4.4,9.8-18,19.9-32.3,12.8c-14-7-11.8-24.4-11.8-24.4L175.6,295.1z M130.4,250.1
	c21.4,1.3,18.3,27.2,18.3,27.2h-46.1C102.6,277.3,107.2,248.9,130.4,250.1 M331.1,275.6c1.2-5.7,2.9-13.4,1.9-21.6
	c-3.5-17.3-19.5-27.7-51.3-24.4c-31.8,3.3-39.1,30.3-39.1,30.3l28.8,2.2c0.9-3.5,5-13.9,23-11.8c16.3,3,8.8,20.5,8.8,20.5
	c-1.2,1.2-14.8,3.2-20.4,3.6c-5.6,0.4-10.9,0.3-26.2,3.6c-15.3,4.7-18.2,10.3-20.9,14.3c-2.7,4-5.3,11.5-4.7,22.5
	c0.6,10.9,7.9,18.4,7.9,18.4c6.4,5.8,9.7,9.7,26.3,9.4c16.6-0.3,28.5-14.6,28.5-14.6c0,4.7,2.2,12.4,2.2,12.4h30.6
	c-8.2-5.6-2.9-29.5-2.9-29.5S329.8,281.3,331.1,275.6 M294.4,307.1c-4.5,9.7-13.6,13.6-22.8,13.9c-7-0.2-12.8-4.4-13.1-12.1
	c-0.2-8.6,7-13,18.9-15.5c11.9-2.5,17.3-1.8,21.7-3.7C298.9,293.6,296.2,303.1,294.4,307.1 M-126,215.4h71.9l-37.1,177.4l30.9,0
	l36.9-177.4h82.6l4.7-22.8h-185.4L-126,215.4z"/>
</svg>
