<?xml version="1.0" encoding="UTF-8" standalone="no"?>
<!-- Created with Inkscape (http://www.inkscape.org/) -->

<svg
   xmlns:dc="http://purl.org/dc/elements/1.1/"
   xmlns:cc="http://creativecommons.org/ns#"
   xmlns:rdf="http://www.w3.org/1999/02/22-rdf-syntax-ns#"
   xmlns:svg="http://www.w3.org/2000/svg"
   xmlns="http://www.w3.org/2000/svg"
   xmlns:sodipodi="http://sodipodi.sourceforge.net/DTD/sodipodi-0.dtd"
   xmlns:inkscape="http://www.inkscape.org/namespaces/inkscape"
   version="1.1"
   id="svg2"
   xml:space="preserve"
   width="427.58438"
   height="427.58438"
   viewBox="0 0 427.58438 427.58437"
   sodipodi:docname="ucr.svg"
   inkscape:version="0.92.4 (5da689c313, 2019-01-14)"><metadata
     id="metadata8"><rdf:RDF><cc:Work
         rdf:about=""><dc:format>image/svg+xml</dc:format><dc:type
           rdf:resource="http://purl.org/dc/dcmitype/StillImage" /><dc:title></dc:title></cc:Work></rdf:RDF></metadata><defs
     id="defs6" /><sodipodi:namedview
     pagecolor="#ffffff"
     bordercolor="#666666"
     borderopacity="1"
     objecttolerance="10"
     gridtolerance="10"
     guidetolerance="10"
     inkscape:pageopacity="0"
     inkscape:pageshadow="2"
     inkscape:window-width="1477"
     inkscape:window-height="860"
     id="namedview4"
     showgrid="false"
     inkscape:zoom="0.5961804"
     inkscape:cx="-276.77488"
     inkscape:cy="130.66414"
     inkscape:window-x="945"
     inkscape:window-y="433"
     inkscape:window-maximized="0"
     inkscape:current-layer="g10"
     fit-margin-top="0"
     fit-margin-left="0"
     fit-margin-right="0"
     fit-margin-bottom="0" /><g
     id="g10"
     inkscape:groupmode="layer"
     inkscape:label="ink_ext_XXXXXX"
     transform="matrix(1.3333333,0,0,-1.3333333,-51.827599,494.8469)"><path
       inkscape:connector-curvature="0"
       id="path16"
       style="fill:#244995;fill-opacity:1;fill-rule:nonzero;stroke:none;stroke-width:0.1"
       d="m 226.545,148.591 h 0.148" /><path
       inkscape:connector-curvature="0"
       id="path18"
       style="fill:#f9ad16;fill-opacity:1;fill-rule:nonzero;stroke:none;stroke-width:0.1"
       d="m 166.912,174.808 82.427,38.936 v 3.836 l -82.427,-18.71 v -24.062" /><path
       inkscape:connector-curvature="0"
       id="path20"
       style="fill:#244995;fill-opacity:1;fill-rule:nonzero;stroke:none;stroke-width:0.1"
       d="M 249.339,312.192 137.713,296.214 V 192.242 l 111.626,25.338 v 94.612" /><path
       inkscape:connector-curvature="0"
       id="path22"
       style="fill:#ffffff;fill-opacity:1;fill-rule:nonzero;stroke:none;stroke-width:0.1"
       d="m 230.703,235.631 c 0,-9.837 -6.376,-13.48 -16.029,-13.48 h -0.181 c -9.656,0 -16.029,3.552 -16.029,13.48 v 38.249 c 0,9.472 6.373,13.479 16.029,13.479 h 0.181 c 9.653,0 16.029,-4.007 16.029,-13.479 V 262.223 H 220.14 v 10.019 c 0,4.462 -2.188,5.828 -5.557,5.828 -3.37,0 -5.556,-1.366 -5.556,-5.828 V 237.27 c 0,-4.462 2.186,-5.829 5.556,-5.829 3.369,0 5.557,1.367 5.557,5.829 v 11.566 h 10.563 v -13.205" /><path
       inkscape:connector-curvature="0"
       id="path24"
       style="fill:#ffffff;fill-opacity:1;fill-rule:nonzero;stroke:none;stroke-width:0.1"
       d="M 177.842,286.632 V 237.27 c 0,-4.553 -2.004,-5.829 -5.465,-5.829 -3.462,0 -5.465,1.276 -5.465,5.829 v 49.362 h -10.564 v -51.001 c 0,-9.928 6.192,-13.48 15.847,-13.48 h 0.364 c 9.655,0 15.847,3.643 15.847,13.48 v 51.001 h -10.564" /><path
       inkscape:connector-curvature="0"
       id="path26"
       style="fill:#244995;fill-opacity:1;fill-rule:nonzero;stroke:none;stroke-width:0.1"
       d="m 204.082,124.482 c 0,-4.55 -2.365,-5.8242 -5.822,-5.8242 h -5.551 v 19.925 h 5.551 c 3.457,0 5.822,-1.2726 5.822,-5.8226 z m 10.554,-1.457 v 11.3738 c 0,9.6442 -6.368,13.4653 -16.013,13.4653 H 182.156 V 84.1762 h 10.553 v 25.384 h 5.277 l 8.099,-25.384 h 10.734 l -9.097,27.0218 c 4.367,1.9098 6.914,5.7321 6.914,11.827" /><path
       inkscape:connector-curvature="0"
       id="path28"
       style="fill:#244995;fill-opacity:1;fill-rule:nonzero;stroke:none;stroke-width:0.1"
       d="m 245.748,119.0219 -7.461,4.1859 c -3.002,1.7281 -4.094,3.1844 -4.094,6.4594 v 4.3668 c 0,4.0039 2.276,5.459 5.368,5.459 3.094,0 5.369,-1.4551 5.369,-5.459 v -8.916 h 10.372 v 10.3718 c 0,9.4622 -6.915,13.1012 -15.65,13.1012 h -0.181 c -8.735,0 -15.65,-3.639 -15.65,-13.1012 v -8.3707 c 0,-6.641 3.549,-9.5531 9.736,-13.1 l 7.37,-4.1863 c 3.183,-1.7289 4.184,-3.3668 4.184,-6.6418 v -5.0039 c 0,-3.9121 -2.274,-5.641 -5.459,-5.641 -3.183,0 -5.459,1.7289 -5.459,5.641 v 9.6438 H 223.821 V 96.732 c 0,-9.9172 6.096,-13.2851 15.74,-13.2851 h 0.183 c 9.644,0 15.739,3.4582 15.739,13.2851 v 9.1879 c 0,6.825 -3.638,9.6449 -9.735,13.102" /><path
       inkscape:connector-curvature="0"
       id="path30"
       style="fill:#244995;fill-opacity:1;fill-rule:nonzero;stroke:none;stroke-width:0.1"
       d="m 265.761,84.1762 h 10.554 v 63.6879 H 265.761 V 84.1762" /><path
       inkscape:connector-curvature="0"
       id="path32"
       style="fill:#244995;fill-opacity:1;fill-rule:nonzero;stroke:none;stroke-width:0.1"
       d="m 309.794,99.2781 c 0,-4.548 -2.365,-5.8222 -5.822,-5.8222 h -5.369 v 45.1269 h 5.369 c 3.457,0 5.822,-1.2726 5.822,-5.8226 z m -5.459,48.586 H 288.05 V 84.1762 h 16.285 c 9.645,0 16.014,3.8207 16.014,13.4648 v 36.7578 c 0,9.6442 -6.369,13.4653 -16.014,13.4653" /><path
       inkscape:connector-curvature="0"
       id="path34"
       style="fill:#244995;fill-opacity:1;fill-rule:nonzero;stroke:none;stroke-width:0.1"
       d="m 341.907,93.4559 v 18.3793 h 14.557 v 9.2789 h -14.557 v 17.4687 h 17.378 v 9.2813 H 331.353 V 84.1762 h 28.206 v 9.2797 h -17.652" /><path
       inkscape:connector-curvature="0"
       id="path36"
       style="fill:#244995;fill-opacity:1;fill-rule:nonzero;stroke:none;stroke-width:0.1"
       d="m 60.7973,124.482 c 0,-4.55 -2.3641,-5.8242 -5.8227,-5.8242 h -5.5492 v 19.925 h 5.5492 c 3.4586,0 5.8227,-1.2726 5.8227,-5.8226 z m 10.5547,-1.457 v 11.3738 c 0,9.6442 -6.3684,13.4653 -16.0137,13.4653 H 38.8707 V 84.1762 h 10.5547 v 25.384 h 5.2773 l 8.0969,-25.384 h 10.7363 l -9.098,27.0218 c 4.3664,1.9098 6.9141,5.7321 6.9141,11.827" /><path
       inkscape:connector-curvature="0"
       id="path38"
       style="fill:#244995;fill-opacity:1;fill-rule:nonzero;stroke:none;stroke-width:0.1"
       d="m 82.5375,84.1762 h 10.5547 v 63.6879 H 82.5375 V 84.1762" /><path
       inkscape:connector-curvature="0"
       id="path40"
       style="fill:#244995;fill-opacity:1;fill-rule:nonzero;stroke:none;stroke-width:0.1"
       d="m 119.112,100.6441 -7.369,47.22 h -10.737 l 12.01,-63.6879 h 11.646 l 12.009,63.6879 h -10.19 l -7.369,-47.22" /><path
       inkscape:connector-curvature="0"
       id="path42"
       style="fill:#244995;fill-opacity:1;fill-rule:nonzero;stroke:none;stroke-width:0.1"
       d="m 154.772,111.8352 h 14.557 v 9.2789 h -14.557 v 17.4687 h 17.378 v 9.2813 H 144.219 V 84.1762 h 28.205 v 9.2797 h -17.652 v 18.3793" /></g></svg>