<?xml version="1.0" encoding="UTF-8" standalone="no"?>
<!-- Created with Inkscape (http://www.inkscape.org/) -->

<svg
   xmlns:dc="http://purl.org/dc/elements/1.1/"
   xmlns:cc="http://creativecommons.org/ns#"
   xmlns:rdf="http://www.w3.org/1999/02/22-rdf-syntax-ns#"
   xmlns:svg="http://www.w3.org/2000/svg"
   xmlns="http://www.w3.org/2000/svg"
   xmlns:sodipodi="http://sodipodi.sourceforge.net/DTD/sodipodi-0.dtd"
   xmlns:inkscape="http://www.inkscape.org/namespaces/inkscape"
   version="1.1"
   id="svg2"
   xml:space="preserve"
   width="1.249143in"
   height="1.249in"
   viewBox="0 0 119.91773 119.904"
   sodipodi:docname="wd.svg"
   inkscape:version="0.92.4 (5da689c313, 2019-01-14)"><metadata
     id="metadata8"><rdf:RDF><cc:Work
         rdf:about=""><dc:format>image/svg+xml</dc:format><dc:type
           rdf:resource="http://purl.org/dc/dcmitype/StillImage" /><dc:title></dc:title></cc:Work></rdf:RDF></metadata><defs
     id="defs6" /><sodipodi:namedview
     pagecolor="#ffffff"
     bordercolor="#666666"
     borderopacity="1"
     objecttolerance="10"
     gridtolerance="10"
     guidetolerance="10"
     inkscape:pageopacity="0"
     inkscape:pageshadow="2"
     inkscape:window-width="1516"
     inkscape:window-height="810"
     id="namedview4"
     showgrid="false"
     fit-margin-top="0"
     fit-margin-left="0"
     fit-margin-right="0"
     fit-margin-bottom="0"
     inkscape:zoom="1.8101934"
     inkscape:cx="98.609376"
     inkscape:cy="119.81584"
     inkscape:window-x="1335"
     inkscape:window-y="477"
     inkscape:window-maximized="0"
     inkscape:current-layer="g10"
     units="in" /><g
     id="g10"
     inkscape:groupmode="layer"
     inkscape:label="ink_ext_XXXXXX"
     transform="matrix(1.3333333,0,0,-1.3333333,-6.9797542,125.65783)"><path
       inkscape:connector-curvature="0"
       id="path28"
       style="fill:#231f20;fill-opacity:1;fill-rule:evenodd;stroke:none;stroke-width:0.1"
       d="m 15.480115,68.135456 h 4.342 l 3.125,-13.469 h 0.049 l 2.879,13.469 h 3.67 l -4.564,-17.9106 h -4.267 l -3.224,13.6446 h -0.05 l -3.473,-13.6446 H 9.6008158 l -4.366,17.9106 h 3.9699 l 2.7534002,-13.469 h 0.049 l 3.472999,13.469" /><path
       inkscape:connector-curvature="0"
       id="path30"
       style="fill:#231f20;fill-opacity:1;fill-rule:evenodd;stroke:none;stroke-width:0.1"
       d="m 32.337115,55.459456 c 0,-1.613 0.223,-3.125 2.132,-3.125 1.29,0 1.935,0.471 2.283,1.613 h 3.349 c -0.323,-3.0765 -2.729,-4.0948 -5.632,-4.0948 -4.266,0 -5.977,2.4058 -5.977,6.5738 0,3.747 2.182,6.624 5.977,6.624 2.333,0 4.267,-0.794 5.309,-2.978 0.347,-0.694 0.521,-1.437 0.621,-2.23 0.098,-0.771 0.098,-1.565 0.098,-2.383 z m 4.315,2.481 c 0,1.364 -0.372,2.63 -2.183,2.63 -1.71,0 -2.083,-1.266 -2.132,-2.63 h 4.315" /><path
       inkscape:connector-curvature="0"
       id="path32"
       style="fill:#231f20;fill-opacity:1;fill-rule:evenodd;stroke:none;stroke-width:0.1"
       d="m 48.585115,59.354456 c -0.05,0.843 -0.843,1.216 -1.687,1.216 -1.017,0 -1.489,-0.299 -1.489,-1.116 0,-1.961 7.12,-0.844 7.12,-5.507 0,-2.7288 -3.323,-4.0948 -5.631,-4.0948 -2.901,0 -5.432,1.1422 -5.481,3.9938 h 3.447 c 0.076,-0.967 0.942,-1.512 2.034,-1.512 1.018,0 1.787,0.421 1.787,1.388 0,0.993 -1.787,1.415 -2.53,1.588 -2.382,0.571 -4.589,1.092 -4.589,3.994 0,2.605 3.149,3.746 5.332,3.746 2.631,0 4.862,-0.944 5.036,-3.696 h -3.349" /><path
       inkscape:connector-curvature="0"
       id="path34"
       style="fill:#231f20;fill-opacity:1;fill-rule:evenodd;stroke:none;stroke-width:0.1"
       d="m 54.142115,62.677456 v 2.456 l 3.72,1.341 v -3.797 h 2.804 v -2.48 h -2.804 v -5.78 c 0,-1.636 0.248,-2.083 1.538,-2.083 0.398,0 0.794,0.05 1.192,0.073 v -2.1826 c -0.423,-0.198 -2.407,-0.3722 -2.928,-0.3722 -2.902,0 -3.522,1.5133 -3.522,4.2188 v 6.126 h -1.369 v 2.48 h 1.369" /><path
       inkscape:connector-curvature="0"
       id="path36"
       style="fill:#231f20;fill-opacity:1;fill-rule:evenodd;stroke:none;stroke-width:0.1"
       d="m 64.907115,55.459456 c 0,-1.613 0.223,-3.125 2.134,-3.125 1.29,0 1.935,0.471 2.282,1.613 h 3.349 c -0.323,-3.0765 -2.73,-4.0948 -5.631,-4.0948 -4.266,0 -5.977,2.4058 -5.977,6.5738 0,3.747 2.182,6.624 5.977,6.624 2.331,0 4.266,-0.794 5.308,-2.978 0.347,-0.694 0.521,-1.437 0.62,-2.23 0.1,-0.771 0.1,-1.565 0.1,-2.383 z m 4.317,2.481 c 0,1.364 -0.373,2.63 -2.183,2.63 -1.712,0 -2.084,-1.266 -2.134,-2.63 h 4.317" /><path
       inkscape:connector-curvature="0"
       id="path38"
       style="fill:#231f20;fill-opacity:1;fill-rule:evenodd;stroke:none;stroke-width:0.1"
       d="m 80.672115,59.527456 c -0.619,-0.049 -1.438,-0.396 -1.81,-0.917 -0.397,-0.695 -0.471,-1.389 -0.496,-2.208 v -6.1776 h -3.696 l -0.025,9.9726 c 0,0.521 -0.074,1.562 -0.123,2.48 h 3.397 l 0.075,-2.256 h 0.05 c 0.793,1.96 2.381,2.455 4.241,2.406 l -1.613,-3.3" /><path
       inkscape:connector-curvature="0"
       id="path40"
       style="fill:#231f20;fill-opacity:1;fill-rule:evenodd;stroke:none;stroke-width:0.1"
       d="m 86.962115,61.239456 0.051,-0.074 c 0.767,1.14 1.934,1.885 3.819,1.885 1.241,0 3.646,-0.918 4.093,-2.729 0.199,-0.768 0.248,-1.563 0.248,-1.984 v -8.1126 h -3.721 v 7.4916 c -0.024,1.34 -0.396,2.854 -2.232,2.854 -1.166,0 -2.184,-1.043 -2.233,-2.854 v -7.4916 h -3.721 v 12.4526 h 3.696 v -1.438" /><path
       inkscape:connector-curvature="0"
       id="path42"
       style="fill:#231f20;fill-opacity:1;fill-rule:evenodd;stroke:none;stroke-width:0.1"
       d="m 6.6004158,46.637356 h 6.1016992 c 5.581,0.0496 9.055,-2.7285 9.055,-8.9562 0,-6.225 -3.474,-9.0039 -9.055,-8.9539 H 6.6004158 Z m 3.8437002,-14.9328 h 1.985 c 4.562999,-0.0496 5.233999,3.1246 5.233999,5.9766 0,2.8539 -0.671,6.0289 -5.233999,5.9793 h -1.985 v -11.9559" /><path
       inkscape:connector-curvature="0"
       id="path44"
       style="fill:#231f20;fill-opacity:1;fill-rule:evenodd;stroke:none;stroke-width:0.1"
       d="m 27.288115,46.637356 v -3.1996 h -3.969 v 3.1996 z m -0.124,-5.4574 v -12.4527 h -3.72 v 12.4527 h 3.72" /><path
       inkscape:connector-curvature="0"
       id="path46"
       style="fill:#231f20;fill-opacity:1;fill-rule:evenodd;stroke:none;stroke-width:0.1"
       d="m 41.105115,29.843656 c 0,-2.9016 -0.644,-6.0777 -6.101,-6.0277 -2.754,0 -5.706,0.6695 -5.779,4.0187 h 3.521 c 0.05,-1.1176 1.042,-1.5383 2.06,-1.5383 2.827,0 2.728,2.5801 2.579,4.3914 h -0.049 c -0.769,-1.2172 -2.084,-1.7125 -3.498,-1.7125 -3.374,0 -5.11,3.1762 -5.11,6.2016 0,3.175 1.81,6.3758 5.283,6.3758 1.663,0 2.73,-0.5461 3.325,-1.8121 h 0.049 v 1.4394 h 3.72 z m -6.127,1.6125 c 2.035,0 2.407,2.0828 2.407,3.6949 0,1.8359 -0.372,3.9211 -2.407,3.9211 -2.033,0 -2.405,-2.0852 -2.405,-3.9211 0,-1.6121 0.372,-3.6949 2.405,-3.6949" /><path
       inkscape:connector-curvature="0"
       id="path48"
       style="fill:#231f20;fill-opacity:1;fill-rule:evenodd;stroke:none;stroke-width:0.1"
       d="m 47.169115,46.637356 v -3.1996 h -3.969 v 3.1996 z m -0.124,-5.4574 v -12.4527 h -3.721 v 12.4527 h 3.721" /><path
       inkscape:connector-curvature="0"
       id="path50"
       style="fill:#231f20;fill-opacity:1;fill-rule:evenodd;stroke:none;stroke-width:0.1"
       d="m 49.748115,41.179956 v 2.4559 l 3.721,1.3398 v -3.7957 h 2.804 v -2.4808 h -2.804 v -5.7793 c 0,-1.6383 0.248,-2.0836 1.538,-2.0836 0.397,0 0.794,0.0496 1.19,0.0742 v -2.1832 c -0.421,-0.1988 -2.405,-0.3727 -2.926,-0.3727 -2.902,0 -3.523,1.5141 -3.523,4.2172 v 6.1274 h -1.472 v 2.4808 h 1.472" /><path
       inkscape:connector-curvature="0"
       id="path52"
       style="fill:#231f20;fill-opacity:1;fill-rule:evenodd;stroke:none;stroke-width:0.1"
       d="m 57.711115,37.657356 c 0.024,1.5632 0.695,2.5304 1.686,3.1011 1.017,0.5953 2.332,0.7942 3.672,0.7942 2.505,0 5.307,-0.9192 5.307,-4.6641 v -6.7969 c 0.026,-0.6211 0.125,-0.9918 0.174,-1.3644 h -3.349 c -0.074,0.5711 -0.123,1.1414 -0.123,1.6621 h -0.05 c -0.843,-1.4383 -2.132,-2.0348 -3.82,-2.0348 -2.332,0 -4.068,1.3407 -4.068,3.7715 0,0.8684 0.397,2.9758 2.654,3.943 1.49,0.6465 3.374,0.7203 4.862,0.6707 v 1.1656 c 0,0.5211 -0.397,1.5383 -1.712,1.5383 -1.289,0 -1.711,-1.2152 -1.66,-1.7863 z m 3.001,-5.0356 c 0,-1.041 0.77,-1.7855 1.811,-1.7855 2.058,0 2.133,2.2808 2.133,3.7453 -1.29,0.0234 -3.944,0.0496 -3.944,-1.9598" /><path
       inkscape:connector-curvature="0"
       id="path54"
       style="fill:#231f20;fill-opacity:1;fill-rule:evenodd;stroke:none;stroke-width:0.1"
       d="m 74.411115,46.637356 v -17.9101 h -3.721 v 17.9101 h 3.721" /><path
       inkscape:connector-curvature="0"
       id="path56"
       style="fill:#231f20;fill-opacity:1;fill-rule:evenodd;stroke:none;stroke-width:0.1"
       d="m 76.304115,44.545556 c 0,1.4864 1.206,2.6926 2.707,2.6926 1.494,0 2.694,-1.2062 2.694,-2.6926 0,-1.5003 -1.2,-2.7066 -2.694,-2.7066 -1.501,0 -2.707,1.2063 -2.707,2.7066 z m 4.926,0 c 0,1.2211 -0.992,2.2196 -2.219,2.2196 -1.235,0 -2.233,-0.9985 -2.233,-2.2196 0,-1.2347 0.998,-2.2324 2.233,-2.2324 1.227,0 2.219,0.9977 2.219,2.2324 z m -2.793,-0.1789 v -1.3718 h -0.496 v 3.1734 h 1.027 c 0.581,0 1.185,-0.1574 1.185,-0.8754 0,-0.3668 -0.223,-0.6539 -0.646,-0.7398 v -0.0145 c 0.438,-0.0863 0.488,-0.2793 0.539,-0.6246 0.042,-0.302 0.078,-0.632 0.186,-0.9191 h -0.632 c -0.036,0.18 -0.085,0.3808 -0.108,0.5675 -0.035,0.2723 -0.035,0.5246 -0.18,0.6743 -0.121,0.13 -0.286,0.1152 -0.459,0.13 z m 0.524,0.495 c 0.466,0.0144 0.574,0.2082 0.574,0.4527 0,0.2371 -0.108,0.359 -0.503,0.359 h -0.595 v -0.8117 h 0.524" /></g></svg>